<svg width="14" height="16" viewBox="0 0 14 16" fill="none" xmlns="http://www.w3.org/2000/svg">
<path d="M7 3.5C7.82843 3.5 8.5 2.82843 8.5 2C8.5 1.17157 7.82843 0.5 7 0.5C6.17157 0.5 5.5 1.17157 5.5 2C5.5 2.82843 6.17157 3.5 7 3.5Z" fill="black"/>
<path d="M7 9.5C7.82843 9.5 8.5 8.82843 8.5 8C8.5 7.17157 7.82843 6.5 7 6.5C6.17157 6.5 5.5 7.17157 5.5 8C5.5 8.82843 6.17157 9.5 7 9.5Z" fill="black"/>
<path d="M7 15.5C7.82843 15.5 8.5 14.8284 8.5 14C8.5 13.1716 7.82843 12.5 7 12.5C6.17157 12.5 5.5 13.1716 5.5 14C5.5 14.8284 6.17157 15.5 7 15.5Z" fill="black"/>
</svg>
